<?xml version="1.0" standalone="no"?>
<!DOCTYPE svg PUBLIC "-//W3C//DTD SVG 20010904//EN"
 "http://www.w3.org/TR/2001/REC-SVG-20010904/DTD/svg10.dtd">
<svg version="1.0" xmlns="http://www.w3.org/2000/svg"
 width="1024.000000pt" height="1024.000000pt" viewBox="0 0 1024.000000 1024.000000"
 preserveAspectRatio="xMidYMid meet">
<metadata>
Created by potrace 1.11, written by Peter Selinger 2001-2013
</metadata>
<g transform="translate(0.000000,1024.000000) scale(0.100000,-0.100000)"
fill="#000000" stroke="none">
<path d="M4645 9461 c7 -12 -51 -19 -70 -9 -8 5 -14 6 -13 1 3 -7 -7 -15 -14
-12 -2 0 -13 2 -25 3 -15 2 -20 -1 -14 -8 14 -16 -127 -10 -147 6 -9 7 -13 8
-9 2 5 -8 -5 -11 -28 -11 -19 1 -35 6 -35 12 0 5 -4 4 -9 -3 -4 -8 -12 -14
-16 -14 -4 0 -12 6 -16 14 -7 11 -9 11 -9 -1 0 -10 -3 -11 -13 -2 -8 6 -17 8
-21 4 -13 -13 -48 -14 -41 -1 4 7 1 6 -7 -3 -14 -17 -42 -14 -32 3 4 7 2 8 -5
4 -6 -4 -9 -11 -6 -16 6 -9 -61 -24 -74 -15 -5 3 -11 1 -13 -5 -1 -5 -15 -11
-30 -12 -16 -1 -28 -6 -28 -10 0 -4 -5 -8 -11 -8 -5 0 -7 6 -4 13 4 6 0 4 -9
-7 -9 -11 -23 -17 -35 -13 -11 3 -21 1 -23 -5 -2 -5 -19 -11 -38 -13 -19 -3
-46 -8 -60 -11 -14 -3 -31 -6 -37 -6 -7 -1 -13 -5 -13 -9 0 -4 -9 -6 -20 -4
-11 2 -20 -1 -20 -7 0 -5 -7 -8 -15 -4 -8 3 -15 1 -15 -3 0 -5 -7 -12 -16 -15
-10 -4 -13 -2 -8 7 6 9 5 9 -8 0 -8 -7 -18 -10 -21 -6 -4 3 -7 2 -7 -4 0 -6
-7 -14 -16 -17 -10 -4 -13 -2 -8 7 6 8 3 8 -9 -1 -9 -8 -22 -10 -28 -6 -7 4
-9 3 -6 -3 4 -6 -2 -13 -13 -16 -13 -3 -18 -1 -13 5 4 7 1 8 -8 2 -15 -9 -30
-13 -71 -17 -16 -1 -28 -5 -28 -8 0 -3 -6 -6 -12 -7 -62 -4 -96 -10 -107 -16
-7 -5 -15 -5 -18 -2 -3 3 -15 0 -27 -6 -11 -7 -29 -11 -38 -9 -10 1 -18 -3
-18 -8 0 -6 -5 -11 -11 -11 -6 0 -7 6 -2 13 4 6 -5 4 -21 -6 -15 -10 -34 -16
-42 -13 -8 3 -14 1 -14 -4 0 -6 -5 -10 -11 -10 -5 0 -7 6 -4 13 4 6 0 4 -8 -5
-16 -21 -31 -24 -22 -5 4 6 -1 3 -9 -7 -9 -11 -16 -17 -16 -13 0 4 -9 3 -19
-3 -14 -7 -21 -6 -24 3 -3 7 -6 4 -6 -6 -1 -10 -5 -16 -10 -13 -5 3 -21 -1
-37 -9 -15 -7 -31 -12 -36 -9 -4 3 -8 0 -8 -6 0 -6 -4 -8 -10 -5 -5 3 -10 2
-10 -3 0 -5 -9 -12 -20 -15 -13 -3 -18 -1 -13 6 3 7 -4 3 -17 -8 -15 -13 -21
-15 -16 -5 5 9 2 8 -7 -2 -8 -10 -17 -15 -20 -11 -4 3 -7 1 -7 -4 0 -6 -11
-10 -24 -9 -16 2 -23 -1 -20 -9 3 -7 -2 -15 -11 -19 -11 -4 -14 -2 -10 7 4 6
-1 3 -9 -7 -9 -11 -16 -16 -16 -12 0 5 -6 3 -13 -3 -8 -6 -18 -7 -22 -3 -5 4
-5 2 -2 -4 4 -7 0 -17 -8 -24 -13 -11 -15 -10 -9 6 5 18 4 18 -11 -1 -9 -11
-21 -19 -26 -17 -5 1 -9 -3 -9 -9 0 -6 -7 -9 -15 -5 -10 3 -15 -1 -15 -11 0
-9 -3 -13 -6 -10 -4 4 -19 -2 -34 -13 -16 -11 -31 -20 -35 -20 -3 0 -13 -7
-22 -16 -9 -8 -22 -13 -29 -10 -8 3 -14 -1 -14 -10 0 -11 -6 -14 -16 -10 -10
4 -13 2 -8 -6 5 -8 2 -9 -9 -5 -9 3 -16 3 -16 -1 3 -20 -3 -23 -18 -11 -10 8
-14 9 -10 2 8 -13 -31 -45 -45 -37 -4 3 -11 -2 -14 -10 -3 -9 -10 -16 -16 -16
-5 0 -6 5 -2 11 4 8 0 8 -15 0 -11 -7 -21 -16 -21 -22 0 -6 -4 -7 -10 -4 -5 3
-10 0 -10 -7 0 -9 -3 -9 -10 2 -8 13 -10 13 -10 -2 0 -12 -5 -15 -17 -11 -11
4 -14 3 -9 -5 5 -8 2 -10 -8 -6 -9 3 -16 1 -16 -5 0 -6 -3 -10 -7 -9 -5 1 -18
-3 -31 -10 -12 -7 -27 -10 -32 -7 -6 4 -13 -1 -16 -9 -3 -9 -10 -14 -14 -11
-11 7 -61 -20 -53 -28 3 -4 1 -8 -5 -8 -7 -1 -16 -2 -20 -3 -5 0 -17 -9 -27
-19 -9 -10 -24 -16 -31 -13 -8 3 -13 2 -11 -2 1 -4 -2 -8 -6 -9 -5 -1 -15 -10
-24 -20 -9 -11 -12 -12 -8 -3 4 8 -1 6 -10 -5 -9 -11 -21 -19 -26 -17 -5 1 -9
-3 -9 -9 0 -5 -4 -8 -9 -4 -6 3 -14 -3 -20 -12 -5 -10 -13 -18 -18 -18 -4 0
-7 -4 -5 -8 1 -5 -2 -6 -7 -3 -5 4 -12 2 -16 -4 -4 -6 -11 -8 -16 -5 -5 3 -6
-2 -2 -11 4 -12 3 -15 -5 -10 -7 4 -12 2 -12 -4 0 -6 -3 -9 -7 -7 -11 7 -33
-19 -25 -29 4 -4 -1 -4 -11 -1 -11 4 -16 3 -12 -3 4 -6 -3 -14 -15 -18 -12 -4
-21 -12 -21 -17 1 -6 -3 -10 -7 -10 -5 0 -17 -8 -27 -18 -9 -10 -23 -16 -30
-13 -7 2 -12 -3 -11 -12 1 -11 -6 -17 -20 -16 -16 0 -20 -4 -16 -14 3 -10 1
-13 -6 -8 -7 4 -12 2 -12 -4 0 -7 -7 -10 -14 -7 -10 4 -13 1 -10 -8 6 -15 -29
-39 -41 -27 -3 4 -5 0 -3 -8 2 -9 -4 -14 -14 -14 -11 1 -14 -4 -10 -14 4 -11
1 -14 -12 -9 -9 4 -15 3 -12 -2 3 -5 -1 -11 -9 -15 -8 -3 -15 -12 -15 -21 0
-18 -16 -20 -24 -2 -3 6 -3 1 0 -12 5 -19 3 -23 -9 -18 -11 4 -14 2 -10 -9 3
-7 0 -14 -7 -14 -6 0 -8 -5 -4 -12 5 -8 2 -9 -9 -5 -12 4 -17 1 -17 -10 0 -19
-75 -93 -93 -93 -7 0 -6 -4 3 -10 13 -8 12 -10 -3 -10 -11 0 -15 -5 -11 -11 4
-8 -1 -9 -17 -4 -16 4 -19 3 -11 -3 10 -7 10 -11 -2 -21 -8 -7 -20 -10 -25 -6
-6 3 -8 0 -5 -8 3 -9 -3 -16 -15 -20 -12 -3 -21 -13 -21 -24 0 -15 -2 -16 -10
-3 -8 13 -10 12 -10 -3 0 -10 -8 -21 -18 -24 -24 -10 -91 -81 -83 -90 3 -4 -3
-1 -13 7 -13 10 -17 10 -12 2 8 -14 -47 -75 -59 -64 -4 4 -5 -1 -3 -10 1 -9
-1 -17 -7 -18 -5 -1 -14 -8 -18 -16 -5 -8 -13 -11 -19 -8 -7 4 -8 2 -4 -4 4
-8 0 -12 -11 -12 -14 0 -15 -2 -4 -9 9 -6 10 -11 2 -15 -6 -4 -15 -4 -21 -1
-6 4 -7 -1 -3 -11 5 -13 3 -15 -7 -9 -9 6 -11 4 -5 -5 5 -8 1 -18 -10 -27 -11
-7 -16 -13 -12 -13 3 0 -7 -23 -23 -50 -17 -28 -30 -59 -30 -69 0 -11 -7 -21
-15 -25 -8 -3 -14 -11 -13 -18 2 -7 -3 -12 -10 -10 -10 2 -11 -2 -4 -15 8 -13
6 -21 -6 -31 -12 -9 -12 -11 -2 -6 13 7 13 5 2 -9 -8 -9 -11 -20 -8 -26 3 -5
-1 -12 -10 -15 -10 -4 -14 -12 -10 -22 5 -12 2 -15 -11 -10 -15 6 -16 5 -6 -5
17 -17 17 -32 1 -23 -10 5 -10 4 -2 -5 12 -13 -3 -61 -19 -61 -5 0 -5 -4 -2
-10 3 -5 1 -10 -5 -10 -6 0 -15 -11 -20 -25 -6 -16 -15 -23 -24 -19 -9 3 -20
-3 -28 -15 -7 -12 -18 -21 -25 -21 -7 0 -13 -6 -13 -14 0 -8 -7 -17 -15 -20
-9 -3 -15 -14 -13 -23 2 -11 -2 -17 -10 -15 -8 1 -11 -2 -7 -8 3 -6 10 -8 14
-6 4 3 8 -1 8 -9 0 -8 -4 -12 -9 -9 -4 3 -8 0 -8 -5 0 -6 8 -11 18 -12 11 0
12 -2 4 -6 -10 -4 -10 -8 -1 -19 14 -17 -2 -19 -21 -1 -9 7 -8 4 1 -8 9 -11
14 -26 11 -34 -3 -9 0 -11 9 -6 11 6 12 5 2 -6 -7 -7 -13 -28 -13 -47 0 -18
-5 -42 -10 -52 -7 -13 -7 -21 1 -26 8 -4 7 -9 -2 -15 -12 -7 -11 -9 1 -9 9 -1
6 -6 -10 -16 -14 -8 -17 -13 -7 -10 9 3 17 1 17 -4 0 -6 -8 -10 -17 -10 -10 0
-14 -4 -8 -8 15 -10 18 -35 4 -26 -9 5 -10 2 -6 -9 3 -9 2 -19 -4 -23 -6 -3
-8 -12 -5 -19 3 -8 -2 -19 -9 -25 -8 -7 -12 -16 -9 -21 3 -5 1 -9 -3 -9 -5 0
-10 -12 -11 -27 -1 -16 -7 -30 -12 -31 -6 -2 -8 -8 -4 -13 3 -5 -3 -9 -13 -10
-16 0 -16 -1 2 -9 11 -5 14 -9 7 -9 -7 -1 -11 -5 -8 -10 3 -5 -1 -14 -8 -20
-10 -9 -12 -20 -6 -42 5 -18 5 -29 -1 -29 -6 0 -8 -4 -5 -9 4 -5 0 -12 -6 -14
-10 -4 -10 -6 0 -6 6 -1 12 -11 12 -23 0 -19 -2 -20 -10 -8 -8 12 -10 11 -7
-5 1 -11 6 -26 10 -32 5 -8 3 -13 -4 -13 -8 0 -7 -5 2 -17 12 -14 12 -16 0 -9
-11 7 -13 1 -9 -26 3 -28 1 -35 -10 -30 -12 4 -12 1 -3 -16 7 -12 9 -22 5 -22
-3 0 -1 -7 6 -15 11 -13 10 -14 -5 -9 -14 6 -16 4 -9 -12 11 -23 11 -55 1 -72
-5 -6 -4 -12 1 -12 6 0 13 -7 16 -16 4 -10 2 -13 -7 -9 -6 4 -3 -1 7 -9 15
-12 16 -16 5 -16 -11 0 -12 -2 0 -9 9 -6 10 -11 2 -15 -7 -5 -7 -12 1 -26 7
-10 16 -16 22 -13 5 3 6 1 2 -5 -12 -19 -16 -53 -5 -47 10 7 13 -5 11 -44 -1
-14 3 -30 9 -37 7 -8 7 -14 -1 -19 -8 -5 -8 -10 0 -20 8 -10 7 -14 -2 -18 -10
-4 -10 -8 2 -16 9 -7 10 -11 3 -11 -12 0 -10 -30 3 -53 5 -7 0 -6 -11 3 -17
14 -18 14 -7 -6 6 -12 8 -24 5 -28 -3 -3 -1 -6 5 -6 7 0 12 -7 12 -16 0 -17
30 -75 44 -85 4 -4 2 -9 -5 -12 -10 -4 -9 -6 3 -6 9 -1 15 -8 14 -18 -2 -9 5
-24 15 -34 11 -11 16 -25 12 -35 -4 -11 -2 -15 4 -11 7 5 14 -5 18 -24 4 -17
13 -33 22 -36 8 -3 12 -12 9 -19 -3 -7 0 -16 6 -20 7 -4 8 -3 4 4 -4 7 -5 12
-1 12 3 0 10 -12 15 -26 6 -15 14 -22 22 -18 6 4 8 3 5 -3 -9 -15 32 -65 46
-56 8 4 7 1 -1 -9 -11 -13 -10 -16 5 -14 12 0 17 -5 17 -17 -2 -14 1 -15 13
-6 8 8 13 8 11 2 -3 -12 39 -53 54 -53 5 0 6 -4 3 -10 -3 -5 0 -10 8 -10 8 0
18 -7 21 -16 4 -9 9 -14 13 -10 3 3 22 -11 41 -32 19 -20 31 -31 28 -25 -5 9
-2 11 8 7 9 -3 13 -10 10 -15 -3 -5 0 -9 6 -9 6 0 9 -4 6 -9 -3 -5 2 -8 12 -7
9 0 16 -5 15 -11 -2 -7 3 -12 10 -10 6 1 11 -4 9 -11 -1 -8 2 -11 9 -6 7 4 17
0 23 -8 6 -8 19 -17 29 -21 9 -4 22 -17 27 -29 5 -13 9 -17 9 -10 1 7 6 10 11
7 6 -4 7 -11 4 -17 -5 -7 -2 -8 6 -3 7 4 16 2 21 -6 4 -8 14 -14 21 -14 7 -1
12 -6 11 -13 -2 -6 3 -9 11 -6 7 3 21 -2 30 -11 9 -9 16 -13 17 -8 0 4 5 -3
10 -16 8 -20 11 -22 26 -10 11 9 14 10 10 2 -5 -8 1 -15 18 -19 14 -3 25 -10
25 -15 0 -5 6 -9 14 -9 8 0 18 -5 22 -12 5 -7 3 -8 -6 -3 -8 5 -11 4 -6 -3 4
-6 14 -8 23 -5 11 4 14 3 9 -5 -5 -8 -2 -10 8 -6 9 4 18 -1 22 -10 3 -9 10
-13 15 -10 5 2 19 -1 31 -8 13 -7 27 -11 31 -10 4 1 10 -5 14 -14 5 -13 7 -13
14 -2 7 10 9 10 9 -3 0 -10 8 -15 22 -14 25 2 48 -15 41 -30 -2 -5 2 -2 10 8
10 12 17 14 22 7 3 -5 11 -8 16 -5 5 4 9 -2 10 -12 0 -10 3 -13 5 -7 3 8 16 9
37 4 18 -4 34 -7 37 -8 37 -6 59 -16 53 -26 -4 -6 1 -5 10 3 15 12 21 9 18
-11 0 -4 6 -5 14 -2 9 4 15 0 15 -7 0 -11 3 -11 10 1 7 10 13 11 17 5 5 -6 15
-10 23 -10 8 0 18 -4 22 -10 5 -6 8 -4 8 4 0 11 4 9 15 -5 15 -19 15 -19 8 1
-7 20 -7 20 21 1 16 -10 26 -14 22 -8 -8 13 80 20 101 8 10 -5 14 -5 10 1 -8
12 63 10 83 -2 8 -5 11 -4 7 2 -7 12 94 10 113 -2 9 -5 11 -4 6 3 -10 16 7 15
23 -1 8 -7 11 -7 8 -1 -10 17 73 10 85 -7 8 -11 9 -10 4 4 -3 11 0 17 10 17 8
0 13 -4 10 -9 -3 -4 6 -7 19 -5 14 1 27 -2 31 -7 3 -5 13 -5 24 1 13 7 21 7
25 0 5 -8 11 -8 20 0 8 7 15 7 19 1 3 -5 14 -8 24 -7 9 2 21 -2 25 -8 6 -8 10
-7 14 2 3 8 9 10 16 3 7 -5 16 -11 22 -13 5 -1 9 -6 8 -10 -2 -4 4 -5 12 -2
19 8 64 -27 65 -49 0 -10 5 -15 10 -12 9 6 14 -8 11 -27 0 -5 4 -8 10 -8 5 0
7 -6 3 -12 -5 -8 0 -7 11 2 17 14 18 13 13 -13 -4 -18 -1 -30 7 -34 8 -2 16
-11 19 -19 3 -8 2 -12 -3 -9 -5 3 -12 1 -16 -5 -3 -5 1 -10 10 -10 9 0 13 -5
10 -10 -4 -6 -12 -7 -18 -3 -7 4 -6 0 2 -10 7 -10 9 -17 3 -17 -8 0 -9 -28 -2
-37 7 -9 4 -29 -5 -35 -6 -5 -6 -8 3 -8 7 0 12 -13 12 -32 0 -25 3 -29 10 -18
8 12 10 9 10 -12 0 -15 5 -30 10 -33 6 -4 8 -11 5 -16 -3 -5 1 -6 9 -3 12 4
16 0 16 -16 0 -11 5 -18 10 -15 6 3 10 -3 10 -14 0 -11 9 -22 19 -26 10 -3 21
-15 24 -26 3 -12 10 -18 15 -15 11 6 72 -60 63 -69 -3 -4 -1 -6 4 -5 22 5 35
-1 66 -32 18 -18 29 -27 25 -20 -7 11 -4 11 12 1 12 -7 19 -17 16 -21 -3 -4 3
-5 12 -1 11 4 15 3 11 -4 -5 -7 0 -9 13 -6 14 4 20 0 20 -11 0 -10 5 -14 10
-11 6 3 10 1 10 -5 0 -6 4 -9 9 -5 5 3 16 -1 24 -9 8 -8 23 -16 33 -18 10 -2
24 -10 31 -18 7 -8 13 -11 13 -6 0 6 7 1 16 -10 8 -10 12 -13 8 -5 -5 10 2 9
24 -4 17 -10 29 -22 27 -26 -3 -3 3 -6 13 -6 34 0 43 -3 37 -13 -4 -6 1 -7 11
-3 14 5 16 3 10 -13 -6 -15 -5 -16 5 -7 10 10 15 9 26 -5 8 -9 11 -11 8 -4 -4
7 16 1 44 -14 28 -16 51 -32 51 -36 0 -4 7 -8 15 -8 8 0 15 -5 15 -11 0 -5 4
-8 9 -5 5 3 11 -1 15 -9 3 -8 12 -15 21 -15 8 0 15 -4 15 -10 0 -5 9 -10 19
-10 11 0 21 -4 23 -9 1 -5 10 -11 18 -13 8 -2 21 -10 28 -18 8 -8 11 -9 7 -3
-8 17 26 4 40 -14 6 -8 26 -16 45 -20 19 -3 38 -10 42 -16 6 -9 8 -8 8 1 0 7
5 10 10 7 6 -4 8 -10 5 -15 -3 -4 4 -6 15 -3 13 3 20 0 20 -8 0 -11 2 -11 10
1 6 10 10 11 10 3 0 -7 3 -12 8 -12 21 4 32 -2 26 -13 -5 -9 -2 -9 9 1 11 9
17 10 17 2 0 -13 22 -10 32 4 5 6 8 5 8 -3 0 -7 5 -10 10 -7 6 3 10 1 10 -4 0
-6 5 -11 11 -11 5 0 7 5 4 10 -7 11 8 14 19 3 4 -4 25 -6 46 -4 27 2 40 -2 40
-10 0 -8 6 -5 13 6 11 14 16 15 22 5 6 -9 4 -11 -5 -5 -9 5 -11 4 -6 -4 6 -9
11 -9 22 0 11 9 17 9 28 0 9 -8 16 -8 20 -2 4 6 16 7 29 2 12 -4 28 -6 36 -3
8 2 11 0 8 -5 -3 -5 6 -8 24 -5 16 2 35 -1 43 -7 11 -9 16 -9 21 0 6 8 10 7
16 -2 5 -8 9 -9 9 -3 0 6 7 11 15 11 8 0 15 -5 15 -11 0 -6 4 -5 9 3 5 8 18
12 30 8 14 -3 19 -1 14 6 -4 6 0 8 9 4 9 -3 20 -1 26 5 8 8 16 7 28 -3 12 -9
15 -10 10 -2 -6 12 5 18 27 14 4 0 7 4 7 11 0 6 3 8 7 5 3 -4 15 1 26 10 11
10 17 13 14 6 -5 -8 -1 -8 17 0 13 7 22 16 19 21 -4 5 3 7 15 4 12 -4 20 -2
16 3 -3 5 0 9 5 9 21 0 26 3 39 22 11 15 17 17 28 7 9 -7 14 -8 13 -3 -5 26 2
36 22 31 17 -5 18 -3 7 10 -12 15 -11 15 10 4 18 -9 22 -9 20 1 -2 7 5 13 14
13 10 0 23 7 30 15 11 12 10 12 -7 0 -18 -14 -19 -14 -6 2 7 10 22 18 32 18
11 0 19 4 19 9 0 5 8 8 18 7 9 -2 20 2 24 8 5 7 8 7 8 -2 0 -10 4 -10 15 2 8
8 25 13 37 11 12 -3 26 1 30 8 6 9 10 9 17 -2 8 -12 12 -12 25 -2 10 9 16 10
16 3 0 -6 6 -9 14 -6 7 3 21 -2 30 -11 9 -9 16 -12 16 -7 0 6 9 8 20 5 11 -3
20 -10 20 -15 0 -5 4 -7 8 -4 5 3 18 -3 29 -14 12 -10 24 -16 28 -12 3 4 11
-1 16 -11 6 -9 17 -17 24 -17 8 0 15 -7 15 -16 0 -10 6 -14 14 -11 9 4 17 -2
21 -14 4 -11 15 -19 28 -19 18 0 19 -2 7 -10 -13 -8 -12 -10 3 -10 10 0 20 -7
23 -15 4 -8 10 -12 15 -9 5 3 9 0 9 -5 0 -6 7 -11 15 -11 15 0 41 -39 36 -55
-1 -5 1 -7 5 -3 4 4 14 2 23 -4 10 -8 8 -3 -4 13 -16 20 -15 20 7 -3 15 -15
32 -28 37 -28 5 0 13 -9 16 -20 4 -11 11 -17 17 -14 7 5 9 1 5 -9 -4 -11 -2
-14 9 -10 9 3 14 -1 14 -12 0 -9 5 -13 10 -10 6 3 10 -2 10 -12 0 -14 2 -15 9
-4 7 11 10 9 13 -10 2 -16 9 -23 21 -21 10 2 17 -3 17 -13 0 -8 6 -14 13 -12
6 1 11 -3 10 -9 -1 -5 8 -16 20 -24 21 -12 21 -12 7 6 -14 19 -14 19 8 0 12
-11 22 -25 22 -33 0 -7 5 -13 11 -13 5 0 7 5 4 10 -3 5 -2 10 4 10 5 0 13 -10
16 -21 5 -16 9 -18 15 -9 6 9 10 7 15 -9 3 -11 11 -21 16 -21 6 0 7 6 3 13 -9
13 26 -11 38 -28 5 -6 8 -6 8 -1 0 6 7 1 16 -10 8 -10 12 -12 8 -4 -6 11 -2
10 13 -3 11 -9 23 -14 26 -10 4 3 7 1 7 -6 0 -7 5 -9 10 -6 6 3 10 -1 10 -10
0 -9 4 -14 9 -11 4 3 19 -3 31 -14 26 -23 34 -25 24 -7 -5 8 -2 8 9 -2 9 -7
17 -10 17 -6 0 5 9 0 20 -10 11 -10 17 -22 14 -26 -3 -5 2 -6 10 -3 9 3 23 -1
32 -10 8 -9 20 -14 25 -11 5 4 9 1 9 -4 0 -6 9 -11 21 -11 11 0 17 -4 14 -10
-3 -5 1 -10 9 -10 9 0 16 -5 16 -11 0 -5 4 -7 10 -4 6 3 10 -2 10 -12 0 -12 3
-14 8 -6 6 9 12 7 22 -7 8 -11 20 -20 28 -20 7 0 10 -5 6 -12 -5 -8 -2 -9 9
-5 9 3 19 1 23 -5 5 -7 2 -8 -6 -3 -9 5 -11 4 -6 -3 4 -7 12 -12 18 -12 15 0
77 -68 69 -75 -3 -3 2 -3 12 1 12 4 17 1 18 -12 0 -12 3 -14 6 -6 3 9 10 7 24
-9 10 -12 19 -26 19 -31 0 -4 7 -8 15 -8 8 0 15 -4 15 -10 0 -5 7 -10 16 -10
8 0 13 -3 11 -8 -6 -9 19 -33 27 -25 3 4 6 -1 6 -10 0 -9 3 -17 8 -17 4 0 12
-10 17 -22 6 -13 20 -24 33 -26 20 -3 28 -19 23 -46 -1 -5 6 -3 15 5 10 8 15
9 11 2 -4 -7 1 -14 13 -18 20 -6 46 -43 42 -58 -1 -5 2 -6 8 -2 16 10 34 -6
19 -17 -10 -6 -7 -7 9 -3 15 4 22 2 22 -8 0 -8 10 -22 23 -33 l22 -19 -20 25
-20 25 23 -19 c12 -11 22 -25 22 -33 0 -8 5 -11 11 -8 6 4 13 -2 16 -14 3 -12
16 -24 30 -27 16 -4 22 -12 19 -21 -3 -8 -1 -11 4 -8 6 3 10 1 10 -5 0 -6 5
-8 10 -5 6 3 10 -1 10 -10 0 -10 5 -13 12 -9 7 5 9 2 5 -9 -4 -10 -2 -14 7
-11 7 3 22 -3 32 -13 11 -10 15 -14 8 -10 -7 5 -15 3 -20 -4 -4 -7 -3 -9 4 -5
6 3 14 1 17 -5 4 -5 14 -8 22 -4 13 5 14 3 3 -10 -7 -9 -9 -15 -4 -14 20 4 35
-2 29 -11 -3 -6 1 -7 9 -4 9 3 16 1 16 -6 0 -6 3 -9 8 -7 10 7 32 -19 24 -27
-3 -4 1 -4 10 -1 9 4 18 0 21 -9 4 -9 13 -16 22 -16 8 0 15 -5 15 -10 0 -6 3
-9 8 -9 4 1 14 1 22 0 13 -1 13 -2 0 -11 -12 -8 -11 -10 8 -11 32 -2 33 -3 71
-26 19 -12 38 -20 43 -17 4 3 8 0 8 -7 0 -6 8 -9 19 -6 12 3 22 -1 25 -10 5
-12 9 -13 21 -3 14 12 19 7 16 -15 -1 -5 5 -2 12 7 8 10 17 15 20 11 4 -3 2
-12 -4 -20 -9 -9 -8 -13 0 -13 6 0 11 5 11 10 0 6 15 10 34 10 19 0 38 5 41
10 4 6 10 8 15 5 4 -3 10 2 14 10 3 8 13 15 23 15 14 0 15 2 4 9 -11 7 -9 10
8 16 12 3 19 11 15 16 -3 5 -10 7 -15 4 -5 -3 -6 1 -3 9 4 9 1 16 -6 16 -9 0
-9 4 1 17 10 11 10 14 2 9 -8 -4 -13 -1 -13 8 0 9 -6 15 -12 14 -7 -2 -12 3
-10 10 1 6 -5 12 -13 12 -8 0 -15 5 -15 11 0 6 -7 8 -16 5 -8 -3 -12 -2 -9 4
6 9 -24 48 -32 43 -8 -6 -33 11 -33 23 0 8 -3 13 -7 13 -22 -4 -33 3 -33 18 0
9 -3 14 -6 10 -4 -3 -13 1 -21 9 -8 8 -19 11 -25 8 -7 -4 -8 -2 -4 4 4 7 2 12
-4 12 -6 0 -8 5 -4 12 5 8 2 9 -9 5 -9 -3 -19 -1 -23 5 -5 7 -2 8 7 4 8 -4 3
2 -11 13 -14 11 -28 21 -33 21 -4 0 -6 6 -5 13 2 6 -4 10 -12 9 -8 -2 -12 0
-8 4 4 4 -4 17 -17 30 -14 13 -25 29 -25 36 0 9 -3 9 -10 -2 -8 -12 -10 -12
-10 -1 0 8 -8 20 -17 28 -10 8 -12 11 -4 7 9 -5 12 -3 7 4 -4 7 -12 12 -17 12
-16 0 -41 29 -34 40 3 5 0 7 -9 4 -16 -6 -69 39 -58 50 3 4 -1 4 -11 0 -11 -4
-17 -1 -17 7 0 7 -3 10 -6 6 -9 -9 -36 21 -29 33 3 5 0 7 -8 4 -9 -3 -23 7
-37 25 -12 17 -27 31 -33 31 -17 0 -67 55 -67 73 0 9 -9 19 -20 22 -11 3 -20
12 -20 18 0 7 -11 25 -25 41 -28 32 -31 40 -12 31 6 -4 4 0 -6 8 -10 9 -18 18
-18 21 3 20 0 26 -9 21 -12 -7 -13 7 -2 21 4 5 6 8 3 7 -10 -5 -32 29 -27 42
3 9 0 15 -9 15 -8 0 -12 8 -10 20 2 11 -1 20 -7 20 -6 0 -8 11 -6 25 3 14 2
25 -1 25 -3 0 -6 14 -6 30 -1 20 3 29 12 26 7 -3 10 1 7 8 -5 14 11 30 31 31
6 1 9 6 8 13 -4 16 10 15 26 0 10 -11 11 -9 5 6 -6 16 -4 18 14 14 16 -5 19
-2 14 11 -5 13 -3 14 10 4 12 -11 18 -9 33 7 10 12 25 18 32 16 7 -3 15 0 19
6 5 7 2 8 -6 3 -8 -5 -11 -4 -6 3 4 6 13 9 21 5 8 -3 15 0 15 7 0 6 5 8 10 5
6 -4 18 -1 26 6 8 6 17 9 21 5 3 -3 17 1 31 10 17 11 22 12 16 3 -6 -11 -5
-12 7 -2 12 10 18 10 29 0 10 -10 11 -9 5 2 -6 11 -4 13 8 8 10 -4 17 -1 17 6
0 8 4 6 10 -3 7 -11 10 -11 10 -2 0 7 5 10 10 7 6 -3 10 0 10 7 0 9 3 9 10 -2
7 -11 10 -11 10 -2 0 7 4 11 9 7 5 -3 12 -1 16 5 9 15 27 12 20 -2 -4 -7 0 -5
8 5 8 10 24 19 35 20 11 0 18 5 16 9 -5 8 5 11 39 11 12 0 14 3 7 12 -7 8 -6
12 3 13 28 2 49 9 55 18 12 15 52 35 62 29 5 -3 12 0 16 6 4 8 3 9 -4 5 -7 -4
-12 -2 -12 3 0 6 9 11 20 11 11 0 20 5 20 11 0 6 7 9 14 6 11 -4 13 -1 9 11
-3 9 -2 14 2 9 5 -4 18 1 29 10 16 14 18 14 11 3 -6 -9 -2 -7 8 3 9 11 17 16
17 12 0 -3 7 1 16 9 8 9 12 21 8 27 -4 8 -3 9 5 5 6 -4 14 0 17 8 3 9 10 13
15 10 5 -3 9 2 9 10 0 8 9 20 20 26 11 6 20 18 20 27 0 9 3 14 6 10 9 -8 33
16 26 27 -3 5 2 7 11 3 11 -4 14 -2 11 7 -3 8 0 17 7 22 8 5 10 3 4 -7 -5 -8
-4 -11 1 -6 5 5 10 13 10 18 1 5 2 14 3 20 0 5 5 8 10 4 6 -3 8 4 6 15 -3 13
2 20 13 21 10 0 12 3 5 5 -7 3 -9 12 -6 20 3 7 10 11 17 7 8 -5 8 -3 1 8 -6 8
-10 21 -9 29 1 8 2 21 3 28 0 7 6 10 12 7 6 -4 5 2 -2 13 -10 16 -10 23 0 35
9 12 9 16 -1 20 -10 4 -10 6 0 6 6 1 12 10 12 22 0 14 5 19 13 16 8 -3 14 1
14 9 0 7 -4 11 -9 8 -4 -3 -8 0 -8 5 0 6 7 11 16 11 11 0 14 5 10 16 -4 11 -2
15 8 11 9 -4 13 2 12 16 -1 13 4 21 12 19 8 -1 11 2 7 8 -3 5 -1 10 4 10 6 0
11 3 10 8 -2 15 14 52 23 52 5 0 6 5 3 10 -3 6 -2 10 4 10 5 0 11 10 13 23 2
12 9 21 17 19 12 -3 12 0 1 12 -10 13 -10 16 0 16 8 0 10 3 7 7 -4 3 -2 12 4
20 6 7 8 13 4 13 -4 0 0 12 10 26 9 15 12 23 6 20 -6 -4 -11 -2 -11 3 0 6 4
11 9 11 5 0 12 7 15 16 3 9 2 12 -5 8 -6 -3 -5 3 3 15 7 12 18 21 25 21 7 0
13 5 13 11 0 7 12 10 30 7 17 -3 30 0 31 6 0 6 4 2 9 -9 5 -11 9 -14 9 -6 1 9
10 12 30 9 17 -2 28 -1 25 4 -3 4 0 8 5 8 6 0 11 -3 11 -7 0 -5 15 -8 34 -8
19 0 32 3 30 7 -2 3 16 5 41 3 25 -1 45 1 45 6 0 4 27 7 59 6 33 -1 57 2 54 6
-7 11 121 4 129 -8 5 -6 8 -5 8 2 0 14 31 6 42 -11 5 -7 8 -6 8 4 1 13 2 13
10 -1 6 -10 21 -15 44 -13 21 2 36 -1 36 -8 0 -5 9 -8 20 -5 13 3 21 -1 26
-15 4 -15 8 -17 14 -8 5 9 9 9 14 1 4 -6 12 -9 17 -6 5 4 9 2 9 -2 0 -8 13
-11 63 -13 6 -1 26 2 42 5 17 3 38 7 48 9 9 1 23 10 30 19 6 9 19 17 27 19 8
2 24 13 37 25 14 13 30 20 41 17 14 -5 15 -4 2 5 -13 9 -13 13 4 28 10 10 15
12 11 4 -5 -9 -4 -12 3 -7 6 4 8 14 5 23 -4 9 -2 14 3 11 5 -4 18 1 29 9 20
16 20 16 0 9 -15 -5 -12 0 9 19 16 14 33 25 38 25 5 0 7 4 3 10 -7 11 25 51
36 44 4 -2 6 5 4 17 -4 18 -2 19 12 7 12 -9 15 -9 9 0 -4 7 -2 12 4 12 6 0 8
5 5 10 -3 6 -1 10 5 10 6 0 8 5 4 12 -5 7 -2 9 8 5 11 -4 18 2 22 19 4 13 11
24 16 24 6 0 10 6 10 14 0 8 7 17 16 20 8 3 12 10 9 16 -3 5 2 10 12 10 15 0
16 2 3 10 -14 9 -6 15 15 10 6 -1 7 2 3 6 -4 4 -2 14 5 22 10 13 9 15 -3 8
-13 -7 -13 -6 0 6 8 7 16 19 18 26 1 6 3 18 5 25 1 6 6 15 11 19 5 3 11 14 12
23 1 9 11 23 21 32 10 8 12 12 6 8 -7 -3 -13 -2 -13 3 0 6 7 13 16 16 9 4 14
9 11 13 -4 3 1 12 11 20 9 8 11 12 5 8 -9 -4 -11 -1 -7 9 3 9 10 14 14 11 4
-3 7 3 6 13 0 9 5 16 12 14 10 -2 11 2 4 15 -8 13 -3 26 16 52 15 19 22 32 16
28 -8 -4 -8 3 0 28 6 18 14 31 18 29 4 -3 5 1 2 9 -3 8 -1 18 4 21 5 3 7 18 4
32 -3 17 -1 25 5 21 14 -9 11 26 -2 35 -7 5 -6 8 0 8 6 0 12 15 14 33 5 63 7
72 15 85 4 6 4 12 -1 12 -4 0 -1 5 7 10 8 5 10 10 5 10 -6 0 -11 13 -10 29 0
16 4 27 9 24 4 -3 0 7 -10 23 -17 27 -17 28 -1 15 16 -13 17 -12 8 13 -6 14
-7 26 -3 26 4 0 0 5 -8 10 -8 5 -10 10 -5 10 6 0 11 9 11 20 0 11 -5 20 -11
20 -5 0 -3 5 5 10 8 5 10 10 4 10 -7 0 -15 7 -18 16 -5 12 -2 15 11 10 16 -6
16 -6 0 12 -9 10 -14 22 -10 25 3 4 2 7 -4 7 -6 0 -13 9 -16 20 -3 13 -1 18 6
13 7 -4 4 5 -6 20 -10 15 -15 32 -12 37 3 6 1 10 -5 10 -7 0 -10 6 -7 14 3 7
1 18 -5 24 -7 7 -6 17 2 32 8 15 8 20 1 16 -15 -10 -14 7 2 23 10 11 9 12 -1
6 -11 -6 -12 -3 -3 13 6 12 11 25 10 29 -4 26 2 63 10 58 11 -6 7 28 -5 47 -4
6 -3 8 3 5 6 -4 11 4 11 21 0 15 2 46 4 70 3 26 -1 50 -8 61 -8 10 -11 21 -8
24 9 9 12 57 3 51 -9 -5 -11 5 -11 73 0 24 -4 45 -9 49 -14 8 -11 44 4 44 8 0
8 3 1 8 -17 11 -24 40 -11 46 7 2 5 5 -5 5 -11 1 -15 9 -14 31 1 17 -2 30 -7
30 -5 0 -3 8 4 17 10 11 10 14 2 9 -7 -4 -14 -2 -14 3 -3 21 -4 26 -13 40 -7
11 -6 12 5 6 8 -5 6 0 -4 12 -10 11 -17 24 -16 29 5 26 -2 45 -13 38 -9 -5 -9
-2 1 9 9 12 10 17 2 17 -7 0 -10 4 -6 9 3 5 -2 17 -11 25 -9 9 -11 16 -4 16 7
0 5 7 -4 16 -9 8 -14 20 -11 25 4 5 1 9 -5 9 -6 0 -8 5 -5 10 3 6 -1 13 -10
16 -14 6 -14 8 2 20 10 8 14 14 8 13 -22 -3 -36 1 -31 9 3 5 -1 21 -9 36 -8
14 -10 24 -5 21 6 -3 7 1 4 9 -3 9 -10 16 -15 16 -5 0 -9 7 -9 15 0 8 -5 15
-11 15 -5 0 -7 5 -4 10 3 6 2 10 -3 10 -6 0 -13 7 -16 16 -4 10 -2 13 7 9 6
-4 4 0 -7 9 -10 8 -15 19 -11 25 4 7 0 8 -11 4 -12 -4 -15 -3 -10 5 4 7 2 12
-3 12 -6 0 -11 7 -11 16 0 8 -4 12 -10 9 -5 -3 -10 1 -10 10 0 9 -4 13 -10 10
-5 -3 -10 1 -10 9 0 9 -5 16 -11 16 -6 0 -9 6 -6 14 3 8 -1 13 -11 12 -9 0
-16 5 -14 12 1 8 -2 11 -8 7 -5 -3 -10 2 -10 12 0 14 -2 15 -9 4 -6 -10 -12
-5 -22 18 -8 17 -19 31 -25 31 -6 0 -18 8 -25 18 -12 15 -12 16 1 7 10 -6 9
-4 -2 6 -9 9 -14 20 -10 23 3 4 -2 4 -13 0 -15 -6 -17 -4 -12 9 4 11 1 17 -7
17 -16 0 -29 27 -21 41 4 5 -2 6 -11 2 -12 -4 -15 -3 -10 5 4 7 2 12 -4 12 -6
0 -8 4 -5 10 4 6 -1 7 -12 3 -16 -6 -16 -5 -4 10 12 15 12 17 0 12 -8 -3 -28
13 -49 37 -19 23 -28 38 -21 33 10 -5 12 -4 7 3 -4 7 -13 12 -21 12 -8 0 -17
5 -21 12 -4 7 -3 8 4 4 7 -4 12 -2 12 3 0 6 -6 11 -13 11 -19 0 -49 38 -34 44
7 2 4 5 -6 5 -10 1 -16 4 -14 9 3 4 -1 13 -9 20 -8 7 -14 10 -14 7 0 -4 -7 0
-15 9 -8 8 -15 20 -15 26 0 6 -5 8 -10 5 -12 -8 -9 17 3 26 5 3 1 9 -8 12 -9
4 -13 3 -10 -3 3 -6 3 -10 0 -10 -10 0 -35 28 -35 38 0 6 -15 23 -32 38 -18
15 -32 31 -31 36 2 4 -2 8 -7 8 -6 0 -10 -6 -11 -12 0 -7 -4 -3 -10 10 -5 13
-13 20 -19 17 -5 -3 -10 3 -10 14 0 12 -4 21 -8 21 -15 0 -52 37 -45 44 3 3 1
6 -6 6 -7 0 -10 4 -7 8 3 5 -4 15 -15 22 -10 8 -19 22 -19 31 0 10 -6 20 -12
22 -10 4 -10 6 0 6 10 1 10 4 -2 16 -8 8 -13 24 -11 35 2 11 -4 25 -16 33 -10
8 -16 17 -12 20 3 4 1 7 -5 7 -6 0 -9 7 -6 15 4 8 1 15 -6 15 -8 0 -11 9 -8
24 4 17 1 23 -9 19 -7 -3 -13 2 -13 11 0 9 -5 16 -12 16 -6 0 -9 3 -5 6 3 3 2
11 -4 18 -5 6 -23 27 -39 46 -18 22 -28 42 -25 55 3 11 2 14 -1 7 -4 -9 -18
-1 -46 27 -22 23 -47 41 -56 41 -15 0 -15 2 -2 10 13 8 13 10 -2 10 -9 0 -22
8 -27 18 -6 9 -11 14 -11 10 0 -4 -9 0 -19 9 -11 9 -17 21 -14 26 4 6 -1 8
-10 4 -10 -3 -17 -2 -17 3 0 6 -7 10 -15 10 -8 0 -20 9 -27 20 -7 11 -18 20
-25 20 -7 0 -13 5 -13 10 0 6 -8 10 -18 10 -10 0 -28 9 -41 21 -12 12 -30 22
-39 24 -9 1 -16 8 -15 13 2 6 -4 9 -12 5 -9 -3 -25 3 -37 13 -14 12 -18 14
-13 4 7 -12 3 -11 -18 3 -15 9 -27 14 -27 11 0 -4 -9 1 -21 12 -17 15 -22 16
-29 4 -8 -12 -10 -12 -15 0 -3 8 -16 16 -29 16 -30 2 -96 33 -96 46 0 5 -4 6
-10 3 -5 -3 -10 0 -10 8 0 8 -7 17 -15 21 -9 3 -12 12 -9 23 4 14 3 15 -4 4
-7 -10 -13 -8 -26 10 -9 13 -16 20 -16 17 0 -4 -15 8 -34 27 -19 18 -37 31
-42 27 -4 -4 -4 1 -1 11 4 9 2 17 -3 17 -6 0 -10 -5 -10 -12 0 -6 -8 -1 -19
10 -10 12 -23 22 -30 22 -6 0 -11 5 -11 11 0 5 -4 8 -9 4 -5 -3 -12 -1 -16 5
-4 6 -11 8 -16 5 -5 -3 -6 1 -3 10 5 11 2 14 -10 9 -11 -4 -26 2 -40 15 -15
14 -26 19 -30 12 -5 -7 -14 -4 -28 8 -11 11 -26 17 -33 14 -8 -2 -24 1 -37 8
-23 13 -42 19 -65 21 -7 1 -13 6 -13 11 0 5 -6 7 -14 4 -7 -3 -25 1 -40 8 -19
10 -25 11 -20 2 5 -9 3 -9 -7 1 -7 6 -23 12 -36 12 -13 0 -23 4 -23 8 0 4 -10
8 -22 9 -48 2 -78 8 -78 15 0 3 -11 5 -25 2 -20 -3 -23 -1 -19 13 5 15 4 16
-5 3 -9 -12 -14 -13 -31 -2 -16 10 -20 10 -20 0 0 -8 -3 -9 -8 -3 -4 6 -13 10
-19 11 -7 1 -22 2 -34 3 -13 0 -18 5 -13 14 6 9 5 9 -8 0 -8 -7 -17 -11 -19
-9 -6 6 -71 18 -96 17 -12 0 -25 4 -28 10 -5 7 -11 6 -21 -2 -11 -9 -14 -9
-14 1 0 10 -3 10 -15 0 -12 -10 -15 -10 -15 0 0 10 -3 10 -15 0 -12 -10 -15
-10 -15 1 0 12 -2 12 -9 0 -6 -9 -10 -10 -16 -2 -5 9 -11 9 -19 1 -7 -5 -27
-12 -45 -14 -28 -3 -30 -2 -19 13 11 14 11 14 -2 5 -18 -14 -71 -24 -65 -13 3
4 1 11 -5 14 -6 4 -10 3 -9 -2 3 -19 -2 -23 -21 -13 -11 6 -20 7 -20 2 0 -5
-10 -8 -22 -7 -13 1 -29 -2 -35 -8 -9 -6 -13 -6 -13 3 0 9 -3 10 -13 1 -8 -6
-17 -8 -21 -4 -11 11 -39 13 -51 3 -7 -6 -21 -4 -36 4 -13 7 -31 10 -38 8 -10
-3 -12 0 -8 12 6 14 3 15 -15 5 -18 -10 -20 -9 -15 4 4 11 2 14 -9 10 -7 -3
-14 0 -14 5 0 6 -9 9 -21 7 -14 -3 -19 0 -16 9 4 10 -1 12 -14 9 -12 -4 -26 2
-35 13 -9 11 -13 13 -9 7 4 -9 1 -11 -9 -7 -9 3 -14 9 -12 13 3 4 -4 7 -15 7
-10 0 -19 -5 -19 -11 0 -5 -5 -3 -10 7 -6 10 -18 14 -31 11 -12 -4 -25 0 -30
8 -7 12 -9 12 -9 0 0 -11 -3 -11 -17 0 -15 12 -16 12 -8 -1 5 -9 -1 -7 -14 5
-12 11 -22 15 -21 10 5 -24 -1 -27 -16 -9 -8 10 -13 14 -10 8 3 -7 -1 -15 -10
-18 -8 -3 -12 -2 -9 4 9 14 -9 12 -23 -2 -9 -9 -12 -9 -12 1 0 11 -3 11 -15 1
-8 -7 -26 -10 -40 -8 -14 3 -25 1 -25 -3 0 -5 -5 -9 -11 -9 -5 0 -7 6 -3 13 6
8 3 8 -9 -2 -9 -7 -23 -11 -32 -8 -8 4 -17 2 -20 -3 -9 -15 -27 -12 -20 3 4 6
1 5 -7 -4 -7 -9 -23 -15 -36 -14 -13 1 -25 -2 -28 -7 -3 -5 -13 -3 -22 4 -12
10 -14 10 -8 1 4 -7 3 -13 -3 -13 -5 0 -12 6 -14 13 -4 10 -6 10 -6 0 -1 -7
-8 -13 -16 -13 -8 0 -15 6 -16 13 0 6 -4 3 -9 -8 -5 -11 -9 -15 -9 -8 -1 7 -8
10 -16 7 -9 -4 -15 0 -15 7 0 11 -3 11 -11 -1 -8 -11 -12 -12 -16 -2 -2 6 -9
10 -14 6 -5 -3 -9 -1 -9 4 0 6 -9 8 -20 5 -11 -3 -20 0 -20 6 0 6 -3 10 -7 10
-21 -3 -33 2 -27 13 4 6 3 8 -4 4 -6 -3 -13 -2 -17 4 -4 6 -11 8 -16 5 -5 -4
-9 -1 -9 5 0 6 -4 8 -10 5 -5 -3 -10 1 -10 9 0 9 -5 16 -11 16 -5 0 -7 -5 -3
-12 4 -7 -6 -2 -23 10 -17 12 -33 19 -37 15 -3 -3 -6 -1 -6 5 0 6 -7 9 -15 6
-8 -4 -22 -1 -30 6 -9 7 -18 10 -22 6 -3 -3 -15 2 -26 11 -11 10 -17 12 -13 5
5 -9 -1 -12 -23 -10 -17 1 -31 5 -31 9 0 8 -18 7 -35 -2 -12 -5 -61 -3 -93 4
-12 3 -20 2 -17 -2z m4116 -1628 c13 -16 12 -17 -3 -4 -10 7 -18 15 -18 17 0
8 8 3 21 -13z m-8451 -1473 c0 -5 -5 -10 -11 -10 -5 0 -7 5 -4 10 3 6 8 10 11
10 2 0 4 -4 4 -10z m-10 -500 c0 -5 -2 -10 -4 -10 -3 0 -8 5 -11 10 -3 6 -1
10 4 10 6 0 11 -4 11 -10z m6380 -3460 c0 -5 -2 -10 -4 -10 -3 0 -8 5 -11 10
-3 6 -1 10 4 10 6 0 11 -4 11 -10z"/>
</g>
</svg>
